<svg width="202" height="34" viewBox="0 0 202 34" fill="none" xmlns="http://www.w3.org/2000/svg">
<path d="M23.5051 1.33444C17.0131 1.33003 10.2409 2.79795 3.40176 4.70117C2.53396 4.8775 1.68483 5.44615 1.23885 6.15146C0.826914 6.81489 0.676422 7.48162 0.547899 8.18362C-0.116684 11.9162 -0.0353962 15.5838 0.101914 19.6426C0.131573 20.5728 0.273278 21.6792 0.702786 22.347C1.15756 23.0226 1.92979 23.4524 2.85582 23.5946C4.04548 23.7753 5.22854 23.9142 6.41381 24.0387L6.15237 31.3739C6.10843 31.9546 6.39623 32.4417 6.74885 32.7217C7.06631 32.9619 7.41892 33.0699 7.77813 33.0964C8.49873 33.1515 9.34896 32.8374 9.76968 32.0373C11.6151 28.4722 12.7729 26.9018 15.0776 24.5324C21.0973 24.6845 26.3491 24.3484 32.293 23.9042C34.3955 23.8535 35.8411 22.1266 36.2234 20.7491C37.3603 17.1807 37.5405 12.7769 37.6602 8.32138C37.7118 6.55591 37.1022 4.82571 36.0213 3.90881C34.992 3.07346 33.7518 2.7726 32.6105 2.46293C29.4435 1.7433 26.2766 1.35648 23.504 1.33444H23.5051ZM32.1557 4.12371C33.297 4.43448 34.3054 4.73534 34.9349 5.2522C35.996 6.37958 35.9609 7.13338 35.9488 8.35113C35.8279 12.6689 35.6225 16.8622 34.6482 20.0394C34.2274 21.223 33.5024 22.0671 32.1217 22.1917C26.0624 22.6435 20.8062 22.9928 14.7173 22.8154C14.5991 22.8119 14.4815 22.8325 14.3716 22.8761C14.2617 22.9197 14.1618 22.9853 14.0779 23.0689C11.5196 25.6609 10.2113 27.466 8.25926 31.2317C8.21532 31.3177 8.11646 31.3695 7.99343 31.3783C7.91654 31.3739 7.88139 31.3088 7.87699 31.2537L8.13843 23.297C8.13934 23.0822 8.06242 22.8743 7.92198 22.7122C7.78154 22.55 7.58715 22.4445 7.37498 22.4154C5.95317 22.2781 4.53525 22.1028 3.12275 21.8897C2.51309 21.7993 2.2901 21.6318 2.12313 21.3828C1.83093 20.6852 1.83532 20.2543 1.81445 19.5864C1.67604 15.5574 1.61233 12.0408 2.22529 8.54068C2.2857 8.02052 2.47904 7.49044 2.68445 7.05183C3.02498 6.51734 3.54347 6.4402 4.06635 6.29362C10.7517 4.44219 17.2921 3.05693 23.4535 3.05252C26.4743 3.15942 29.6413 3.46579 32.1557 4.12371ZM9.06116 10.9475C8.13843 12.054 8.22851 13.5561 8.94032 14.5633C9.31381 15.0923 9.89381 15.5144 10.5979 15.6103C11.5163 15.6874 12.0996 15.3127 12.7257 14.8862C13.8626 13.8966 13.978 12.1653 13.1124 10.9134C12.903 10.6072 12.6259 10.3538 12.3027 10.1729C11.9795 9.99209 11.619 9.88869 11.2493 9.87085C10.2629 9.87966 9.59392 10.3194 9.06116 10.9475ZM19.0244 10.0439C18.1072 10.0736 17.3646 10.7106 16.9098 11.3994C16.3935 12.1818 16.0904 13.1682 16.51 14.1368C17.3174 15.9927 20.1064 15.9706 21.2181 14.0817C21.7278 13.2111 21.5993 12.2215 21.2181 11.5074C20.8358 10.7877 20.2602 10.2026 19.4243 10.0692C19.2921 10.0481 19.1582 10.0397 19.0244 10.0439ZM27.1137 10.2158C26.8258 10.2084 26.5383 10.2403 26.259 10.3106C25.1562 10.6081 24.217 11.7476 24.3587 13.2078C24.4312 13.944 24.7662 14.6625 25.3759 15.1529C25.9844 15.6488 26.8643 15.8682 27.7958 15.6786C28.8635 15.4582 29.5292 14.5931 29.7478 13.7588C29.9708 12.9235 29.9159 12.0749 29.4007 11.3862C29.1338 11.029 28.7889 10.7378 28.3925 10.5349C27.996 10.3321 27.5586 10.2229 27.1137 10.2158ZM11.1757 11.5845C11.3779 11.5889 11.5404 11.6528 11.7074 11.8942C12.0809 12.4364 11.9776 13.2552 11.6009 13.5858C11.2274 13.9131 10.9912 13.944 10.8242 13.922C10.6606 13.8966 10.4936 13.7842 10.3431 13.5737C10.0597 13.1682 9.974 12.5146 10.3519 12.0452C10.5496 11.7785 10.9187 11.6099 11.1757 11.5845ZM19.1442 11.7741C19.1738 11.7785 19.5341 11.989 19.7066 12.3119C19.8779 12.6348 19.9076 12.9323 19.745 13.2078C19.2595 14.0344 18.2291 13.8095 18.0753 13.4525C18.0149 13.3147 18.0588 12.7637 18.3412 12.3383C18.6246 11.9074 18.9761 11.7476 19.1431 11.7741H19.1442ZM28.0221 12.4022C28.0737 12.4761 28.2023 12.9444 28.1034 13.3147C28.0045 13.6894 27.842 13.9175 27.4465 13.9991C26.9412 14.1071 26.6578 13.9991 26.4425 13.8272C26.2327 13.6553 26.0866 13.3621 26.0569 13.048C25.98 12.2733 26.2579 12.0926 26.7006 11.9757C27.2114 11.8468 27.7903 12.0705 28.0221 12.4022ZM48.4221 4.80477C48.4346 4.58651 48.5192 4.37866 48.6626 4.21407C48.7341 4.12826 48.8243 4.06001 48.9262 4.01454C49.028 3.96908 49.1389 3.94761 49.2503 3.95179H54.9877C55.181 3.95179 55.3832 4.03334 55.5886 4.19313C55.6846 4.26321 55.7626 4.35526 55.8161 4.46163C55.8696 4.568 55.897 4.68563 55.8962 4.80477V13.9914H65.4969V4.80477C65.4961 4.6908 65.5183 4.57785 65.562 4.47268C65.6058 4.36751 65.6703 4.27229 65.7517 4.19274C65.833 4.11319 65.9295 4.05094 66.0354 4.00972C66.1414 3.96851 66.2545 3.94918 66.368 3.95289H72.0263C72.2845 3.95289 72.5075 4.01681 72.7008 4.14575C72.8941 4.27469 72.9919 4.48187 72.9919 4.76509V31.8775C72.9919 32.1618 72.9062 32.3734 72.7392 32.5145C72.5723 32.6566 72.3526 32.7294 72.0823 32.7294H66.3669C66.1375 32.7385 65.9128 32.6619 65.7364 32.5145C65.5771 32.3723 65.4958 32.1618 65.4958 31.8775V20.8703H55.8973V31.8775C55.8973 32.1486 55.8116 32.3602 55.6358 32.5057C55.4634 32.6566 55.2283 32.7294 54.9317 32.7294H49.2503C48.7099 32.7294 48.4353 32.4759 48.4221 31.9723V4.80477ZM101.27 32.3988C101.118 32.5324 100.935 32.6257 100.737 32.6699C100.563 32.7076 100.385 32.7275 100.206 32.7294H97.2882C97.0564 32.7294 96.8587 32.6864 96.6917 32.6048C96.528 32.5226 96.3832 32.407 96.2666 32.2654C96.1469 32.1176 96.0485 31.9536 95.9744 31.7783C95.8965 31.5966 95.8319 31.4095 95.7811 31.2185L95.1846 28.7389C94.9923 29.14 94.7089 29.5919 94.3442 30.1043C93.9454 30.644 93.4745 31.126 92.9448 31.537C92.3282 32.0113 91.6443 32.3902 90.9159 32.6611C90.1304 32.9663 89.2297 33.1173 88.2125 33.1173C86.7449 33.1173 85.4113 32.833 84.214 32.2654C83.0406 31.7155 81.9962 30.9231 81.1492 29.9401C80.3089 28.9593 79.6553 27.8099 79.1928 26.5017C78.7232 25.1524 78.488 23.7322 78.4975 22.303V9.61297C78.4975 9.12256 78.6007 8.74787 78.816 8.4977C79.0248 8.24424 79.3653 8.1186 79.8278 8.1186H84.2909C84.8434 8.1186 85.2213 8.21338 85.4322 8.39852C85.6376 8.58807 85.7398 8.94954 85.7398 9.49615V22.1101C85.7398 22.6655 85.865 23.1901 86.1133 23.6893C86.6227 24.6911 87.4719 25.4774 88.508 25.9066C89.032 26.1271 89.5636 26.2373 90.1052 26.2373C90.5676 26.2373 91.0488 26.1271 91.542 25.9066C92.0396 25.6862 92.4944 25.3942 92.9151 25.0283C93.3314 24.658 93.6786 24.2238 93.9499 23.7279C94.2201 23.2287 94.353 22.703 94.353 22.1487V9.55236C94.353 9.33305 94.3959 9.11375 94.4771 8.89444C94.5494 8.69204 94.6811 8.51641 94.855 8.39081C95.022 8.28722 95.1813 8.21448 95.3274 8.17481C95.4768 8.13624 95.6481 8.1197 95.8415 8.1197H100.206C100.759 8.1197 101.158 8.25195 101.403 8.52415C101.647 8.79526 101.772 9.16113 101.772 9.61297V31.2967C101.772 31.5414 101.716 31.7651 101.604 31.9723C101.502 32.1735 101.346 32.3419 101.154 32.4583L101.27 32.3988ZM123.695 29.7252C123.346 30.0735 122.961 30.4482 122.545 30.8493C122.124 31.2493 121.665 31.624 121.163 31.9723C120.661 32.3205 120.119 32.6093 119.54 32.8374C118.941 33.0648 118.305 33.1787 117.665 33.1735C115.915 33.1735 114.302 32.8462 112.83 32.1872C111.391 31.5545 110.096 30.6347 109.023 29.4839C107.959 28.3388 107.132 26.9911 106.53 25.4416C105.934 23.8921 105.633 22.2258 105.633 20.4438C105.633 18.6486 105.934 16.9779 106.531 15.4328C107.131 13.8922 107.959 12.5488 109.024 11.4038C110.095 10.2531 111.39 9.33587 112.83 8.7093C114.302 8.05909 115.915 7.73179 117.665 7.73179C118.326 7.72396 118.983 7.82867 119.609 8.04146C120.174 8.23728 120.712 8.50349 121.21 8.83383C121.694 9.16113 122.137 9.5226 122.545 9.93146C122.948 10.3359 123.334 10.7359 123.695 11.1239V2.26346C123.695 1.8513 123.819 1.50305 124.068 1.21873C124.321 0.9344 124.699 0.792236 125.2 0.792236H129.547C129.714 0.792236 129.89 0.830807 130.075 0.900236C130.264 0.972971 130.435 1.07215 130.59 1.20109C130.744 1.33003 130.869 1.48542 130.963 1.66615C131.062 1.84689 131.109 2.04526 131.109 2.26456V31.2361C131.109 32.2302 130.59 32.7294 129.547 32.7294H125.758C125.501 32.7294 125.303 32.6963 125.162 32.6302C125.022 32.569 124.899 32.4731 124.805 32.3514C124.696 32.2102 124.607 32.0535 124.544 31.8863C124.467 31.7012 124.368 31.4819 124.252 31.2361L123.695 29.7252ZM112.585 20.4438C112.585 21.2957 112.717 22.0925 112.984 22.8375C113.229 23.5491 113.613 24.2047 114.113 24.766C114.601 25.3082 115.189 25.7391 115.881 26.0532C116.567 26.3717 117.331 26.5271 118.167 26.5271C118.991 26.5271 119.768 26.3805 120.497 26.083C121.222 25.7854 121.858 25.3777 122.397 24.852C122.942 24.3207 123.385 23.6931 123.702 23.0006C124.031 22.2816 124.218 21.5053 124.252 20.7149V20.4438C124.252 19.6173 124.098 18.8293 123.789 18.0799C123.489 17.3461 123.054 16.6757 122.506 16.104C121.956 15.5337 121.3 15.0763 120.575 14.7573C119.816 14.4228 118.996 14.2538 118.167 14.2614C117.331 14.2614 116.567 14.4267 115.88 14.7573C115.203 15.0764 114.6 15.5357 114.113 16.1051C113.616 16.686 113.233 17.3561 112.984 18.0799C112.716 18.8389 112.581 19.6386 112.585 20.4438ZM153.534 29.7252C153.186 30.0735 152.804 30.4482 152.384 30.8493C151.966 31.2493 151.508 31.624 151.006 31.9723C150.504 32.3205 149.963 32.6093 149.381 32.8374C148.783 33.0649 148.148 33.1789 147.509 33.1735C145.759 33.1735 144.145 32.8462 142.669 32.1872C141.233 31.5532 139.94 30.6335 138.868 29.4839C137.802 28.3388 136.971 26.9911 136.374 25.4416C135.774 23.8921 135.477 22.2258 135.477 20.4438C135.477 18.6486 135.774 16.9779 136.374 15.4328C136.941 13.942 137.787 12.5741 138.868 11.4038C139.938 10.2541 141.231 9.33705 142.669 8.7093C144.145 8.05909 145.759 7.73179 147.509 7.73179C148.217 7.73179 148.865 7.83538 149.449 8.04146C150.014 8.23735 150.553 8.50354 151.052 8.83383C151.534 9.16113 151.981 9.5226 152.384 9.93146C152.79 10.3359 153.174 10.7359 153.534 11.1239V2.26346C153.534 1.8513 153.662 1.50305 153.911 1.21873C154.163 0.9344 154.537 0.792236 155.04 0.792236H159.387C159.554 0.792236 159.729 0.830807 159.918 0.900236C160.103 0.972971 160.274 1.07215 160.429 1.20109C160.583 1.33003 160.712 1.48542 160.807 1.66615C160.906 1.84689 160.953 2.04526 160.953 2.26456V31.2361C160.953 32.2302 160.429 32.7294 159.387 32.7294H155.601C155.344 32.7294 155.143 32.6963 155.001 32.6302C154.862 32.5678 154.739 32.4721 154.644 32.3514C154.536 32.2092 154.448 32.0527 154.383 31.8863C154.306 31.7012 154.212 31.4819 154.095 31.2361L153.534 29.7252ZM142.428 20.4438C142.428 21.2957 142.561 22.0925 142.824 22.8375C143.071 23.5485 143.456 24.2038 143.955 24.766C144.445 25.3082 145.033 25.7391 145.719 26.0532C146.411 26.3717 147.175 26.5271 148.011 26.5271C148.808 26.5331 149.598 26.3822 150.337 26.083C151.046 25.8002 151.693 25.3822 152.242 24.852C152.787 24.3207 153.229 23.693 153.546 23.0006C153.875 22.2816 154.061 21.5053 154.095 20.7149V20.4438C154.096 18.8239 153.468 17.2674 152.344 16.104C151.796 15.5319 151.14 15.0743 150.414 14.7573C149.657 14.4224 148.838 14.2533 148.011 14.2614C147.175 14.2614 146.41 14.4267 145.719 14.7573C145.044 15.0776 144.443 15.5368 143.956 16.1051C143.459 16.6868 143.075 17.3566 142.824 18.0799C142.559 18.8397 142.425 19.6391 142.428 20.4438ZM166.09 2.2855C166.09 1.87224 166.192 1.52399 166.397 1.23967C166.604 0.955339 166.96 0.814277 167.463 0.814277H172.195C172.323 0.814277 172.456 0.847338 172.598 0.921175C172.741 0.990603 172.873 1.08869 172.994 1.21873C173.118 1.34766 173.221 1.50305 173.301 1.68379C173.388 1.86452 173.431 2.06619 173.431 2.2855V31.2361C173.431 31.7265 173.289 32.1012 173.014 32.3514C172.735 32.6048 172.38 32.7294 171.942 32.7294H167.462C166.96 32.7294 166.605 32.6048 166.398 32.3514C166.192 32.1012 166.088 31.7265 166.088 31.2361L166.09 2.2855ZM198.615 29.7858C197.496 30.8235 196.201 31.6528 194.792 32.2346C193.375 32.8242 191.873 33.1173 190.29 33.1173C188.526 33.1173 186.862 32.7944 185.291 32.1486C183.754 31.527 182.349 30.6153 181.154 29.4629C179.964 28.3122 179.006 26.941 178.335 25.4251C177.64 23.8745 177.292 22.1873 177.292 20.3667C177.292 19.2294 177.43 18.1273 177.709 17.0606C177.984 15.9971 178.378 14.9986 178.885 14.0685C179.395 13.1389 180.017 12.2757 180.738 11.4986C182.202 9.9306 184.061 8.78964 186.119 8.19685C187.174 7.88607 188.29 7.73179 189.462 7.73179C190.53 7.73179 191.565 7.87395 192.573 8.15828C194.554 8.71498 196.361 9.76813 197.825 11.2186C198.55 11.9305 199.185 12.7284 199.717 13.5946C200.245 14.4509 200.652 15.3689 200.944 16.3453C201.232 17.3184 201.377 18.3257 201.377 19.3594C201.377 20.0306 201.37 20.5772 201.348 21.0037C201.33 21.4302 201.232 21.7696 201.051 22.0242C200.871 22.2732 200.571 22.4495 200.15 22.5443C199.734 22.6435 199.117 22.6909 198.305 22.6909H184.398C184.528 23.5174 184.789 24.2106 185.183 24.766C185.575 25.3215 186.029 25.7645 186.543 26.0918C187.06 26.4224 187.609 26.656 188.188 26.7971C188.724 26.9346 189.274 27.0071 189.827 27.0131C190.29 27.0131 190.766 26.9657 191.255 26.8665C191.737 26.7742 192.212 26.6449 192.675 26.4797C193.11 26.3294 193.53 26.1421 193.933 25.9199C194.311 25.7039 194.619 25.4802 194.851 25.2476C195.057 25.0801 195.233 24.9556 195.378 24.8729C195.523 24.7883 195.688 24.7438 195.855 24.744C196.022 24.744 196.195 24.8046 196.366 24.9203C196.542 25.0371 196.735 25.2046 196.954 25.4251L199 27.7493C199.143 27.9168 199.232 28.0677 199.27 28.2055C199.31 28.3388 199.331 28.481 199.331 28.6232C199.335 28.8632 199.26 29.0978 199.117 29.2899C198.974 29.4751 198.808 29.6426 198.615 29.7858ZM189.325 13.642C188.823 13.642 188.337 13.7412 187.866 13.944C187.398 14.1424 186.955 14.4079 186.543 14.7441C186.131 15.0824 185.758 15.467 185.433 15.8902C185.12 16.2933 184.851 16.7289 184.631 17.1895H194.504C194.244 16.7042 193.95 16.238 193.624 15.7943C193.313 15.3737 192.949 14.9948 192.542 14.6669C192.125 14.3391 191.655 14.0843 191.153 13.9131C190.629 13.7324 190.02 13.642 189.325 13.642Z" fill="white"/>
</svg>
